<?xml version="1.0" encoding="utf-8"?>
<!-- Generator: Adobe Illustrator 19.1.0, SVG Export Plug-In . SVG Version: 6.00 Build 0)  -->
<svg version="1.1" id="Layer_1" xmlns="http://www.w3.org/2000/svg" xmlns:xlink="http://www.w3.org/1999/xlink" x="0px" y="0px"
	 viewBox="0 0 512 512" style="enable-background:new 0 0 512 512;" xml:space="preserve">
<style type="text/css">
	.st0{fill:#007BB5;}
</style>
<g id="linkedin">
	<path class="st0" d="M0,0v512h512V0H0z M185.6,392.4h-57.3V208h57.3V392.4z M157,182.8c-18.4,0-33.2-14.9-33.2-33.2
		c0-18.3,14.8-33.2,33.2-33.2c18.3,0,33.2,14.9,33.2,33.2C190.2,168,175.3,182.8,157,182.8z M400.2,392.4H343v-89.6
		c0-21.4-0.4-48.9-29.8-48.9c-29.8,0-34.4,23.3-34.4,47.3v91.2h-57.3V208h0h55v25.2h0.8c7.6-14.5,26.3-29.8,54.2-29.8
		c58,0,68.7,38.2,68.7,87.8L400.2,392.4L400.2,392.4z"/>
</g>
</svg>
